<svg width="14.000000" height="13.000000" viewBox="0 0 14 13" fill="none" xmlns="http://www.w3.org/2000/svg" xmlns:xlink="http://www.w3.org/1999/xlink">
	<desc>
			Created with Pixso.
	</desc>
	<defs/>
	<mask id="mask_4_11" fill="white">
		<path id="addon_folder" d="M0 0.541656C3.05176e-05 0.242523 0.223869 0 0.5 0L4.5 0C4.77613 0 4.99997 0.242523 5 0.541656L5 2.16666L13.5 2.16666C13.7761 2.16666 14 2.40921 14 2.70834L14 12.4583C14 12.7575 13.7761 13 13.5 13L0.5 13C0.223869 13 3.05176e-05 12.7575 0 12.4583L0 0.541656ZM10 7.07996L10 12L4 12L4 7.07996L7 4.87997L10 7.07996ZM5 11L9 11L9 7.5867L7 6.12003L5 7.5867L5 11ZM7 7C6.72386 7 6.5 7.22385 6.5 7.5C6.5 7.77615 6.72386 8 7 8C7.27614 8 7.5 7.77615 7.5 7.5C7.5 7.22385 7.27614 7 7 7Z" clip-rule="evenodd" fill="" fill-opacity="1.000000" fill-rule="evenodd"/>
	</mask>
	<path id="addon_folder" d="M0 0.541656C3.05176e-05 0.242523 0.223869 0 0.5 0L4.5 0C4.77613 0 4.99997 0.242523 5 0.541656L5 2.16666L13.5 2.16666C13.7761 2.16666 14 2.40921 14 2.70834L14 12.4583C14 12.7575 13.7761 13 13.5 13L0.5 13C0.223869 13 3.05176e-05 12.7575 0 12.4583L0 0.541656ZM10 7.07996L10 12L4 12L4 7.07996L7 4.87997L10 7.07996ZM5 11L9 11L9 7.5867L7 6.12003L5 7.5867L5 11ZM7 7C6.72386 7 6.5 7.22385 6.5 7.5C6.5 7.77615 6.72386 8 7 8C7.27614 8 7.5 7.77615 7.5 7.5C7.5 7.22385 7.27614 7 7 7Z" clip-rule="evenodd" fill="#F9F9F9" fill-opacity="1.000000" fill-rule="evenodd" mask="url(#mask_4_11)"/>
	<path id="addon_folder" d="" fill="#000000" fill-opacity="0.000000" fill-rule="nonzero"/>
</svg>
