<svg width="14.000175" height="13.968811" viewBox="0 0 14.0002 13.9688" fill="none" xmlns="http://www.w3.org/2000/svg" xmlns:xlink="http://www.w3.org/1999/xlink">
	<desc>
			Created with Pixso.
	</desc>
	<defs/>
	<g opacity="0.990000" style="mix-blend-mode:normal">
		<path id="path13619" d="M13.5 12.55C13.84 12.55 14 12.38 13.99 12.05L13.99 9.47C13.99 9.14 13.83 8.97 13.49 8.97L11.94 8.97C11.6 8.97 11.43 9.14 11.43 9.47C11.43 9.81 11.6 9.98 11.94 9.97L12.18 9.97C10.7 12.54 7.57 13.63 4.81 12.55C2.05 11.47 0.99 8.48 0.99 7.48C0.99 7.48 0.99 6.98 0.5 6.98C-7.63e-6 6.98 0 7.48 0 7.48C0 8.94 1.23 12.23 4.44 13.48C5.25 13.8 6.08 13.95 6.91 13.96C9.34 13.99 11.69 12.74 12.99 10.56L12.99 12.05C12.99 12.39 13.16 12.56 13.5 12.55Z" fill="#FCFCFC" fill-opacity="1.000000" fill-rule="evenodd"/>
		<path id="path13619" d="M13.99 12.05L13.99 9.47C13.99 9.14 13.83 8.97 13.49 8.97L11.94 8.97C11.6 8.97 11.43 9.14 11.43 9.47C11.43 9.81 11.6 9.98 11.94 9.97L12.18 9.97C10.7 12.54 7.57 13.63 4.81 12.55C2.05 11.47 0.99 8.48 0.99 7.48C0.99 7.48 0.99 6.98 0.5 6.98C-7.63e-6 6.98 0 7.48 0 7.48C0 8.94 1.23 12.23 4.44 13.48C5.25 13.8 6.08 13.95 6.91 13.96C9.34 13.99 11.69 12.74 12.99 10.56L12.99 12.05C12.99 12.39 13.16 12.56 13.5 12.55C13.84 12.55 14 12.38 13.99 12.05Z" stroke="#000000" stroke-opacity="0" stroke-width="1.000000" stroke-linejoin="round"/>
	</g>
	<g opacity="0.990000" style="mix-blend-mode:normal">
		<path id="path13619" d="M0.49 1.41C0.15 1.41 -0.01 1.58 0 1.91L0 4.49C0 4.82 0.16 4.98 0.5 4.98L2.05 4.99C2.39 4.99 2.56 4.82 2.56 4.49C2.56 4.15 2.39 3.98 2.05 3.99L1.81 3.99C3.29 1.42 6.42 0.33 9.18 1.41C11.94 2.49 13 5.48 13 6.48C13 6.48 13 6.98 13.5 6.98C14 6.98 14 6.48 14 6.48C14 5.02 12.76 1.73 9.55 0.47C8.74 0.16 7.91 0.01 7.09 0C4.65 -0.03 2.3 1.22 1 3.4L1 1.91C1 1.57 0.83 1.4 0.49 1.41Z" fill="#FCFCFC" fill-opacity="1.000000" fill-rule="evenodd"/>
		<path id="path13619" d="M0 1.91L0 4.49C0 4.82 0.16 4.98 0.5 4.98L2.05 4.99C2.39 4.99 2.56 4.82 2.56 4.49C2.56 4.15 2.39 3.98 2.05 3.99L1.81 3.99C3.29 1.42 6.42 0.33 9.18 1.41C11.94 2.49 13 5.48 13 6.48C13 6.48 13 6.98 13.5 6.98C14 6.98 14 6.48 14 6.48C14 5.02 12.76 1.73 9.55 0.47C8.74 0.16 7.91 0.01 7.09 0C4.65 -0.03 2.3 1.22 1 3.4L1 1.91C1 1.57 0.83 1.4 0.49 1.41C0.15 1.41 -0.01 1.58 0 1.91Z" stroke="#000000" stroke-opacity="0" stroke-width="1.000000" stroke-linejoin="round"/>
	</g>
	<g style="mix-blend-mode:normal">
		<path id="path12897-5" d="M7 3.48C6.84 3.48 6.77 3.56 6.77 3.71L6.76 6.99C6.76 7.15 6.84 7.23 7 7.23C7.15 7.23 7.23 7.15 7.23 6.99L7.23 3.71C7.23 3.55 7.15 3.48 7 3.48ZM5.6 4.49C5.56 4.49 5.53 4.5 5.5 4.52C4.32 5.18 3.75 6.53 4.1 7.81C4.45 9.09 5.64 9.98 7 9.98C8.35 9.98 9.54 9.09 9.89 7.81C10.24 6.53 9.67 5.18 8.49 4.52C8.36 4.45 8.25 4.47 8.18 4.61C8.1 4.74 8.13 4.85 8.27 4.92C9.26 5.48 9.74 6.61 9.45 7.69C9.15 8.77 8.15 9.52 7 9.52C5.84 9.52 4.84 8.77 4.54 7.69C4.25 6.61 4.73 5.48 5.72 4.92C5.83 4.86 5.87 4.78 5.84 4.66C5.8 4.54 5.72 4.48 5.6 4.49Z" fill="#FFFFFF" fill-opacity="1.000000" fill-rule="nonzero"/>
		<path id="path12897-5" d="M6.77 3.71L6.76 6.99C6.76 7.15 6.84 7.23 7 7.23C7.15 7.23 7.23 7.15 7.23 6.99L7.23 3.71C7.23 3.55 7.15 3.48 7 3.48C6.84 3.48 6.77 3.56 6.77 3.71ZM5.5 4.52C4.32 5.18 3.75 6.53 4.1 7.81C4.45 9.09 5.64 9.98 7 9.98C8.35 9.98 9.54 9.09 9.89 7.81C10.24 6.53 9.67 5.18 8.49 4.52C8.36 4.45 8.25 4.47 8.18 4.61C8.1 4.74 8.13 4.85 8.27 4.92C9.26 5.48 9.74 6.61 9.45 7.69C9.15 8.77 8.15 9.52 7 9.52C5.84 9.52 4.84 8.77 4.54 7.69C4.25 6.61 4.73 5.48 5.72 4.92C5.83 4.86 5.87 4.78 5.84 4.66C5.8 4.54 5.72 4.48 5.6 4.49C5.56 4.49 5.53 4.5 5.5 4.52Z" stroke="#FFFFFF" stroke-opacity="1.000000" stroke-width="0.400000" stroke-linejoin="round"/>
	</g>
</svg>
