<svg width="14.000179" height="13.968842" viewBox="0 0 14.0002 13.9688" fill="none" xmlns="http://www.w3.org/2000/svg" xmlns:xlink="http://www.w3.org/1999/xlink">
	<desc>
			Created with Pixso.
	</desc>
	<defs/>
	<path id="02_02" d="M4 10L10 10L10 5.64L8.37 4L4 4L4 10ZM5 5L5 9L9 9L9 6.05L7.95 5L5 5Z" fill="#FFFFFF" fill-opacity="1.000000" fill-rule="evenodd"/>
	<path id="02_01" d="M8.28 5L8.28 6.07L8.28 7.07L5.28 7.07L5.28 4L8.28 4L8.28 5ZM7.28 5L7.28 6.07L6.28 6.07L6.28 5L7.28 5Z" fill="#FFFFFF" fill-opacity="1.000000" fill-rule="evenodd"/>
	<g opacity="0.990000" style="mix-blend-mode:normal">
		<path id="path13619" d="M13.5 12.55C13.84 12.55 14 12.38 13.99 12.05L13.99 9.47C13.99 9.14 13.83 8.97 13.49 8.97L11.94 8.97C11.6 8.97 11.43 9.14 11.43 9.47C11.43 9.81 11.6 9.98 11.94 9.97L12.18 9.97C10.7 12.54 7.57 13.63 4.81 12.55C2.05 11.47 0.99 8.48 0.99 7.48C0.99 7.48 0.99 6.98 0.5 6.98C-7.63e-6 6.98 0 7.48 0 7.48C0 8.94 1.23 12.23 4.44 13.48C5.25 13.8 6.08 13.95 6.91 13.96C9.34 13.99 11.69 12.74 12.99 10.56L12.99 12.05C12.99 12.39 13.16 12.56 13.5 12.55Z" fill="#FCFCFC" fill-opacity="1.000000" fill-rule="evenodd"/>
		<path id="path13619" d="M13.99 12.05L13.99 9.47C13.99 9.14 13.83 8.97 13.49 8.97L11.94 8.97C11.6 8.97 11.43 9.14 11.43 9.47C11.43 9.81 11.6 9.98 11.94 9.97L12.18 9.97C10.7 12.54 7.57 13.63 4.81 12.55C2.05 11.47 0.99 8.48 0.99 7.48C0.99 7.48 0.99 6.98 0.5 6.98C-7.63e-6 6.98 0 7.48 0 7.48C0 8.94 1.23 12.23 4.44 13.48C5.25 13.8 6.08 13.95 6.91 13.96C9.34 13.99 11.69 12.74 12.99 10.56L12.99 12.05C12.99 12.39 13.16 12.56 13.5 12.55C13.84 12.55 14 12.38 13.99 12.05Z" stroke="#000000" stroke-opacity="0" stroke-width="1.000000" stroke-linejoin="round"/>
	</g>
	<g opacity="0.990000" style="mix-blend-mode:normal">
		<path id="path13619" d="M0.49 1.41C0.15 1.41 -0.01 1.58 0 1.91L0 4.49C0 4.82 0.16 4.98 0.5 4.98L2.05 4.99C2.39 4.99 2.56 4.82 2.56 4.49C2.56 4.15 2.39 3.98 2.05 3.99L1.81 3.99C3.29 1.42 6.42 0.33 9.18 1.41C11.94 2.49 13 5.48 13 6.48C13 6.48 13 6.98 13.5 6.98C14 6.98 14 6.48 14 6.48C14 5.02 12.76 1.73 9.55 0.47C8.74 0.16 7.91 0.01 7.09 0C4.65 -0.03 2.3 1.22 1 3.4L1 1.91C1 1.57 0.83 1.4 0.49 1.41Z" fill="#FCFCFC" fill-opacity="1.000000" fill-rule="evenodd"/>
		<path id="path13619" d="M0 1.91L0 4.49C0 4.82 0.16 4.98 0.5 4.98L2.05 4.99C2.39 4.99 2.56 4.82 2.56 4.49C2.56 4.15 2.39 3.98 2.05 3.99L1.81 3.99C3.29 1.42 6.42 0.33 9.18 1.41C11.94 2.49 13 5.48 13 6.48C13 6.48 13 6.98 13.5 6.98C14 6.98 14 6.48 14 6.48C14 5.02 12.76 1.73 9.55 0.47C8.74 0.16 7.91 0.01 7.09 0C4.65 -0.03 2.3 1.22 1 3.4L1 1.91C1 1.57 0.83 1.4 0.49 1.41C0.15 1.41 -0.01 1.58 0 1.91Z" stroke="#000000" stroke-opacity="0" stroke-width="1.000000" stroke-linejoin="round"/>
	</g>
</svg>
